HIERARCHY
ROOT Hips
{
  OFFSET 0 0 0
  CHANNELS 6 Xposition Yposition Zposition Zrotation Yrotation Xrotation
  JOINT LeftThigh
  {
    OFFSET 8.409438 0 -5.917753
    CHANNELS 3 Zrotation Yrotation Xrotation
    JOINT LeftLeg
    {
      OFFSET 0 0 -42.358652
      CHANNELS 3 Zrotation Yrotation Xrotation
      JOINT LeftFoot
      {
        OFFSET 0 0 -39.357303
        CHANNELS 3 Zrotation Yrotation Xrotation
      }
    }
  }
  JOINT RightThigh
  {
    OFFSET -8.409438 0 -5.917753
    CHANNELS 3 Zrotation Yrotation Xrotation
    JOINT RightLeg
    {
      OFFSET 0 0 -42.358652
      CHANNELS 3 Zrotation Yrotation Xrotation
      JOINT RightFoot
      {
        OFFSET 0 0 -39.357303
        CHANNELS 3 Zrotation Yrotation Xrotation
      }
    }
  }
  JOINT SpineLow
  {
    OFFSET 0 0 4.719101
    CHANNELS 3 Zrotation Yrotation Xrotation
    JOINT SpineMid
    {
      OFFSET 0 0 12.899191
      CHANNELS 3 Zrotation Yrotation Xrotation
      JOINT Chest
      {
        OFFSET 0 0 12.899191
        CHANNELS 3 Zrotation Yrotation Xrotation
        JOINT LeftShoulder
        {
          OFFSET 7.550562 1.41573 9.438202
          CHANNELS 3 Zrotation Yrotation Xrotation
          JOINT LeftArm
          {
            OFFSET 9.155056 0 4.247191
            CHANNELS 3 Zrotation Yrotation Xrotation
            JOINT LeftForearm
            {
              OFFSET 0 0 25.771955
              CHANNELS 3 Zrotation Yrotation Xrotation
              JOINT LeftHand
              {
                OFFSET 0 0 25.197169
                CHANNELS 3 Zrotation Yrotation Xrotation
              }
            }
          }
        }
        JOINT RightShoulder
        {
          OFFSET -7.550562 1.41573 9.438202
          CHANNELS 3 Zrotation Yrotation Xrotation
          JOINT RightArm
          {
            OFFSET -9.155056 0 4.247191
            CHANNELS 3 Zrotation Yrotation Xrotation
            JOINT RightForearm
            {
              OFFSET 0 0 -25.771955
              CHANNELS 3 Zrotation Yrotation Xrotation
              JOINT RightHand
              {
                OFFSET 0 0 -25.197169
                CHANNELS 3 Zrotation Yrotation Xrotation
              }
            }
          }
        }
        JOINT Neck
        {
          OFFSET 0 0 15.101124
          CHANNELS 3 Zrotation Yrotation Xrotation
          JOINT Head
          {
            OFFSET 0 0 11.325843
            CHANNELS 3 Zrotation Yrotation Xrotation
            End Site
            {
              OFFSET 0 0 14.157303
            }
          }
        }
      }
    }
  }
}
MOTION
Frames: 11
Frame Time: 0.0
0.0  101.685394  0.0  -0.0267  23.018879  -98.271084  15.204255  -23.946344  7.361802  -4.399616  9.903227  40.173189  3.375702  5.366824  -1.655809  -6.22887  3.035139  -35.727898  4.961858  8.211829  55.128997  0.451497  4.183697  1.577061  -0.420776  1.015984  3.003009  -1.022601  2.824297  8.195044  -1.022601  2.824297  8.195045  -7.157273  19.442681  8.003016  147.945848  34.784981  -168.341327  -34.851716  -24.57454  102.702665  76.520691  -9.440971  1.788701  11.356269  -10.057552  14.577184  -35.140011  73.941898  -69.930756  -15.522402  -10.111746  -86.574038  62.142346  -0.690579  19.754281  -11.714894  -5.714601  -6.832619  -8.84422  -4.157509  -5.23235  
0.0  101.685394  0.0  -0.011141  22.524499  -97.978403  15.319369  -23.719887  7.337853  -4.314369  9.770161  39.847642  3.728235  5.357697  -1.453087  -5.393264  2.876634  -36.035158  4.634659  8.569763  55.167535  0.567609  3.922446  1.543176  -0.363437  1.052931  2.970579  -0.862949  2.917639  8.108588  -0.862949  2.917638  8.108587  -7.695655  19.281033  7.887973  148.909689  36.306911  -167.079771  -34.639618  -24.816691  102.808336  76.739727  -9.290904  0.071507  10.90873  -10.153436  14.571926  -33.312606  74.216313  -68.859015  -15.474142  -10.125138  -86.890102  62.085288  -0.765144  19.610213  -11.80363  -5.850664  -6.918431  -8.912762  -4.257018  -5.299994  
0.0  101.685394  0.0  -0.037298  22.004687  -97.733725  15.429487  -23.547942  7.394398  -4.132892  9.589409  39.494876  3.999173  5.330714  -1.275376  -4.567486  2.708976  -36.330969  4.379924  8.785127  55.259164  0.633472  3.738825  1.484999  -0.426043  1.132979  2.926245  -1.026266  3.143101  7.983883  -1.026266  3.143101  7.983883  -7.923869  18.872551  7.745258  150.572692  37.873707  -165.44838  -34.398977  -24.926615  102.927721  77.024949  -9.018813  -1.695573  11.247249  -10.411483  14.647146  -31.274701  74.475654  -67.646811  -15.337448  -10.181711  -87.333823  62.011366  -0.86698  19.464837  -11.598775  -6.067718  -6.965108  -8.761621  -4.421292  -5.336754  
0.0  101.685394  0.0  -0.103397  21.582677  -97.499634  15.348012  -23.413513  7.503185  -3.885024  9.401671  39.08804  4.266374  5.335366  -1.083126  -3.819549  2.458807  -36.618485  4.142824  9.138309  55.307803  0.590891  3.562303  1.424851  -0.461125  1.134867  2.917182  -1.12228  3.152338  7.957395  -1.12228  3.152338  7.957394  -8.314521  18.857611  7.416732  152.009684  39.620841  -163.65157  -34.161071  -24.942596  103.08309  77.307434  -8.615421  -3.514819  11.062919  -10.273903  14.536976  -28.576639  74.830585  -65.92744  -15.119741  -10.225205  -87.876112  61.862488  -0.951368  19.400256  -11.426271  -6.107934  -7.190759  -8.635052  -4.449211  -5.504806  
0.0  101.685394  0.0  -0.231094  21.105387  -97.29603  15.339979  -23.416246  7.656398  -3.646326  9.256055  38.609067  4.454873  5.306679  -0.923072  -3.09594  2.11972  -36.881783  4.005575  9.423339  55.370378  0.55377  3.402347  1.340362  -0.550051  1.125646  2.918291  -1.366162  3.137865  7.956264  -1.366162  3.137865  7.956265  -8.622252  18.869082  6.878829  153.828643  41.448362  -161.528078  -33.861415  -25.076075  103.150014  77.507391  -8.124881  -5.471407  11.317526  -10.036743  14.378554  -2.118107  79.255199  -47.706827  -21.907307  -6.197376  -82.683507  61.633837  -1.005188  19.51371  -11.164494  -6.075317  -7.490387  -8.441678  -4.422319  -5.726126  
0.0  101.685394  0.0  -0.344209  20.508964  -97.07825  15.51241  -23.486005  7.772324  -3.406499  9.146915  38.143753  4.613973  5.281823  -0.708664  -2.242606  1.723311  -37.101955  3.810588  9.832364  55.362895  0.647245  3.265488  1.262602  -0.625734  1.103817  2.919373  -1.575381  3.087401  7.955946  -1.575381  3.087401  7.955946  -8.947411  19.078278  6.278975  155.725184  43.500516  -159.164672  -33.48903  -25.521875  103.081135  77.586864  -7.610181  -7.51396  11.273919  -9.73127  14.097209  4.1394  79.449276  -42.602341  -21.668525  -6.18573  -83.398466  61.345933  -1.071896  19.808968  -10.760232  -5.99038  -7.795403  -8.140997  -4.358102  -5.9492  
0.0  101.685394  0.0  -0.646256  18.916937  -97.243046  16.694286  -23.958372  8.107969  -3.298458  9.005113  37.627774  4.721707  5.254133  -0.496099  -0.454195  0.971525  -36.942416  3.664042  10.285178  55.285298  0.827151  3.162531  1.209625  -0.582277  1.057302  2.957658  -1.460517  2.956054  8.063401  -1.460517  2.956053  8.0634  -9.280707  19.323133  5.586484  158.060952  45.586184  -156.377531  -33.034979  -26.318282  102.87917  77.519614  -7.121808  -9.403283  11.645846  -9.368889  13.857051  10.879673  79.494321  -36.837617  -21.440679  -6.028628  -84.141579  60.996364  -1.160846  20.279611  -10.277178  -5.852195  -8.092207  -7.780481  -4.255495  -6.164634  
0.0  101.685394  0.0  -0.767207  18.092922  -97.006378  17.379122  -24.128402  8.227019  -3.281204  8.834389  36.978816  4.752328  5.224358  -0.220617  0.45572  0.375027  -37.076345  3.608076  10.801512  55.11286  1.146209  2.996078  1.154594  -0.68631  1.025868  2.937594  -1.749253  2.882423  8.004414  -1.749253  2.882423  8.004413  -9.614078  19.618411  4.722877  160.631064  47.572693  -153.352592  -32.549944  -27.343799  102.639603  77.338405  -6.788818  -10.870543  11.678633  -8.96154  13.515113  20.432688  79.423079  -28.677236  -21.245642  -5.705316  -84.897202  60.569274  -1.27201  20.869319  -9.669262  -5.693765  -8.367082  -7.325746  -4.140202  -6.362354  
0.0  101.685394  0.0  -0.898306  17.005472  -96.84398  18.255442  -24.37352  8.53055  -3.245616  8.632312  36.178975  4.758875  5.185291  0.083871  1.32142  -0.358334  -37.056346  3.771043  11.449708  54.902506  1.65953  2.685983  1.02977  -0.76871  1.004516  2.907845  -1.978096  2.833251  7.919895  -1.978096  2.833251  7.919895  -10.239218  19.853396  3.785964  163.90345  49.475834  -149.959279  -32.047892  -28.340476  102.462253  77.154595  -6.599059  -11.805333  11.799285  -8.635068  13.119512  31.371099  79.000494  -19.140078  -21.036712  -5.360518  -85.69715  60.055171  -1.387738  21.609588  -9.017021  -5.548824  -8.57459  -6.837111  -4.037189  -6.509663  
0.0  101.685394  0.0  -1.015405  15.965507  -96.605928  18.940513  -24.530556  8.930731  -3.04077  8.340741  35.28836  4.607236  5.135559  0.401003  1.897834  -1.25636  -36.964197  4.169903  11.896341  54.577776  2.048412  2.534404  0.942424  -0.882533  0.975134  2.828045  -2.29578  2.763992  7.697514  -2.29578  2.763993  7.697514  -10.611464  20.229098  3.078659  167.614074  51.343847  -146.115716  -31.440324  -29.149712  102.372616  76.984228  -6.486035  -12.233485  11.821852  -8.248405  12.912786  42.589599  78.13336  -9.492502  -20.743581  -5.059834  -86.572669  59.388272  -1.47838  22.592173  -8.308748  -5.318878  -8.652833  -6.304058  -3.873375  -6.558871  
0.0  101.685394  0.0  -1.143874  14.734741  -96.365456  19.519674  -24.578377  9.460447  -2.712904  8.011633  34.287038  4.48892  5.022676  0.822146  2.448858  -2.249102  -36.755706  4.673416  12.264955  54.127072  2.235739  2.385362  0.885511  -0.972996  0.95686  2.742631  -2.548512  2.721428  7.460671  -2.548512  2.721428  7.460671  -11.200611  20.465077  2.180524  172.040959  52.936972  -141.889876  -30.630445  -29.848004  102.359918  76.807251  -6.347234  -12.371363  11.981048  -7.994554  12.604334  52.923855  76.772789  -0.604372  -20.322354  -4.81162  -87.496824  58.461766  -1.470878  23.933243  -7.603767  -5.116703  -8.696276  -5.773382  -3.730983  -6.582867  
